<svg width="44" height="44" viewBox="0 0 44 44" fill="none" xmlns="http://www.w3.org/2000/svg">
<path d="M3.66666 16.5V12.8333C3.66666 7.33333 7.33332 3.66666 12.8333 3.66666H31.1667C36.6667 3.66666 40.3333 7.33333 40.3333 12.8333V16.5M3.66666 27.5V31.1667C3.66666 36.6667 7.33332 40.3333 12.8333 40.3333H31.1667C36.6667 40.3333 40.3333 36.6667 40.3333 31.1667V27.5" stroke="white" stroke-width="1.5" stroke-miterlimit="10" stroke-linecap="round" stroke-linejoin="round"/>
<path d="M12.2833 16.9767L22 22.605L31.6433 17.0133M22 32.5783V22.5867" stroke="white" stroke-width="1.5" stroke-linecap="round" stroke-linejoin="round"/>
<path d="M19.7267 11.5317L13.86 14.795C12.54 15.5283 11.44 17.38 11.44 18.9017V25.1167C11.44 26.6383 12.5217 28.49 13.86 29.2233L19.7267 32.4867C20.9733 33.1833 23.0267 33.1833 24.2917 32.4867L30.1583 29.2233C31.4783 28.49 32.5783 26.6383 32.5783 25.1167V18.9017C32.5783 17.38 31.4967 15.5283 30.1583 14.795L24.2917 11.5317C23.0267 10.8167 20.9733 10.8167 19.7267 11.5317Z" stroke="white" stroke-width="1.5" stroke-linecap="round" stroke-linejoin="round"/>
</svg>
