<svg width="24" height="24" viewBox="0 0 24 24" fill="none" xmlns="http://www.w3.org/2000/svg">
<path d="M22 21V3M8.38 18.4V20C8.38 20.55 8.83 21 9.38 21H18C18.55 21 19 20.55 19 20V18.4C19 17.85 18.55 17.4 18 17.4H9.38C8.83 17.4 8.38 17.85 8.38 18.4ZM5.19 11.2V12.8C5.19 13.35 5.64 13.8 6.19 13.8H18C18.55 13.8 19 13.35 19 12.8V11.2C19 10.65 18.55 10.2 18 10.2H6.19C5.64 10.2 5.19 10.65 5.19 11.2ZM2 4V5.6C2 6.15 2.45 6.6 3 6.6H18C18.55 6.6 19 6.15 19 5.6V4C19 3.45 18.55 3 18 3H3C2.45 3 2 3.45 2 4Z" stroke="white" stroke-width="1.5" stroke-linecap="round" stroke-linejoin="round"/>
</svg>
