<svg width="44" height="44" viewBox="0 0 44 44" fill="none" xmlns="http://www.w3.org/2000/svg">
<path d="M32.6333 3.85L14.4283 8.415C11.77 9.075 9.07501 11.77 8.41501 14.4283L3.85001 32.6333C2.47501 38.1333 5.84834 41.525 11.3667 40.15L29.5717 35.6033C32.2117 34.9433 34.925 32.23 35.585 29.59L40.15 11.3667C41.525 5.86667 38.1333 2.475 32.6333 3.85Z" stroke="black" stroke-width="1.5" stroke-linecap="round" stroke-linejoin="round"/>
<path d="M22 28.4167C22.8427 28.4167 23.6771 28.2507 24.4556 27.9282C25.2341 27.6058 25.9414 27.1331 26.5373 26.5373C27.1331 25.9414 27.6058 25.2341 27.9282 24.4555C28.2507 23.677 28.4167 22.8426 28.4167 22C28.4167 21.1573 28.2507 20.323 27.9282 19.5444C27.6058 18.7659 27.1331 18.0586 26.5373 17.4627C25.9414 16.8669 25.2341 16.3942 24.4556 16.0718C23.6771 15.7493 22.8427 15.5833 22 15.5833C20.2982 15.5833 18.6661 16.2594 17.4627 17.4627C16.2594 18.6661 15.5833 20.2982 15.5833 22C15.5833 23.7018 16.2594 25.3339 17.4627 26.5373C18.6661 27.7406 20.2982 28.4167 22 28.4167Z" stroke="black" stroke-width="1.5" stroke-linecap="round" stroke-linejoin="round"/>
</svg>
