<svg width="44" height="44" viewBox="0 0 44 44" fill="none" xmlns="http://www.w3.org/2000/svg">
<path d="M17.545 22.8433L11.9533 28.435M12.0083 22.8983L17.6 28.49" stroke="black" stroke-width="1.5" stroke-miterlimit="10" stroke-linecap="round" stroke-linejoin="round"/>
<path d="M24.805 25.6667H24.8233M32.0283 25.6667H32.0467M28.4167 29.2967V29.26M28.4167 22.0733V22.0367" stroke="black" stroke-width="2" stroke-miterlimit="10" stroke-linecap="round" stroke-linejoin="round"/>
<path d="M23.8517 3.66667L23.8333 5.51833C23.8285 6.00138 23.6332 6.463 23.2899 6.80286C22.9466 7.14272 22.4831 7.33336 22 7.33333H21.945C20.9367 7.33333 20.13 8.15833 20.13 9.16667C20.13 10.175 20.955 11 21.9633 11H23.7967M16.5 40.3333H27.5C36.6667 40.3333 40.3333 36.6667 40.3333 27.5V23.8333C40.3333 14.6667 36.6667 11 27.5 11H16.5C7.33332 11 3.66666 14.6667 3.66666 23.8333V27.5C3.66666 36.6667 7.33332 40.3333 16.5 40.3333Z" stroke="black" stroke-width="1.5" stroke-linecap="round" stroke-linejoin="round"/>
</svg>
