<svg width="44" height="44" viewBox="0 0 44 44" fill="none" xmlns="http://www.w3.org/2000/svg">
<path d="M25.6667 14.6667H34.8333M27.5 22H34.8333M31.1667 29.3333H34.8333M31.1667 38.5H12.8333C5.50001 38.5 3.66667 36.6667 3.66667 29.3333V14.6667C3.66667 7.33333 5.50001 5.5 12.8333 5.5H31.1667C38.5 5.5 40.3333 7.33333 40.3333 14.6667V29.3333C40.3333 36.6667 38.5 38.5 31.1667 38.5Z" stroke="black" stroke-width="1.5" stroke-linecap="round" stroke-linejoin="round"/>
<path d="M22 29.9383C21.8766 28.6514 21.3068 27.4483 20.3893 26.5375C19.4718 25.6266 18.2645 25.0656 16.9767 24.9517C16.05 24.86 15.1166 24.86 14.19 24.9517C12.9035 25.0691 11.6981 25.6312 10.7813 26.5413C9.86445 27.4515 9.2935 28.6527 9.16667 29.9383M15.5833 20.6983C16.4634 20.6983 17.3074 20.3487 17.9298 19.7264C18.5521 19.1041 18.9017 18.2601 18.9017 17.38C18.9017 16.4999 18.5521 15.6559 17.9298 15.0336C17.3074 14.4113 16.4634 14.0617 15.5833 14.0617C14.7033 14.0617 13.8592 14.4113 13.2369 15.0336C12.6146 15.6559 12.265 16.4999 12.265 17.38C12.265 18.2601 12.6146 19.1041 13.2369 19.7264C13.8592 20.3487 14.7033 20.6983 15.5833 20.6983Z" stroke="black" stroke-width="1.5" stroke-linecap="round" stroke-linejoin="round"/>
</svg>
